<svg width="30" height="30" viewBox="0 0 30 30" fill="none" xmlns="http://www.w3.org/2000/svg">
<g clip-path="url(#clip0)">
<path d="M29.9706 8.82008C29.9004 7.22607 29.6426 6.1302 29.2733 5.18061C28.8924 4.17264 28.3063 3.27022 27.5385 2.52002C26.7883 1.75816 25.88 1.16615 24.8837 0.79117C23.9286 0.421912 22.8384 0.16414 21.2444 0.0938599C19.6385 0.0176273 19.1287 0 15.0556 0C10.9826 0 10.4727 0.0176273 8.87277 0.0879078C7.27876 0.158188 6.18288 0.416188 5.23353 0.785218C4.22533 1.16615 3.3229 1.7522 2.57271 2.52002C1.81084 3.27022 1.21907 4.1786 0.843859 5.17488C0.4746 6.1302 0.216829 7.22011 0.146548 8.81413C0.0703159 10.42 0.0526886 10.9299 0.0526886 15.0029C0.0526886 19.076 0.0703159 19.5858 0.140596 21.1858C0.210877 22.7798 0.468877 23.8757 0.838136 24.8253C1.21907 25.8332 1.81084 26.7356 2.57271 27.4858C3.3229 28.2477 4.23129 28.8397 5.22757 29.2147C6.18288 29.584 7.2728 29.8417 8.86705 29.912C10.4668 29.9825 10.9768 29.9999 15.0499 29.9999C19.123 29.9999 19.6328 29.9825 21.2327 29.912C22.8268 29.8417 23.9226 29.584 24.872 29.2147C26.8881 28.4352 28.4822 26.8412 29.2617 24.8253C29.6307 23.8699 29.8887 22.7798 29.959 21.1858C30.0292 19.5858 30.0469 19.076 30.0469 15.0029C30.0469 10.9299 30.0409 10.42 29.9706 8.82008ZM27.2691 21.0686C27.2045 22.5337 26.9584 23.3249 26.7533 23.8523C26.2492 25.1593 25.2119 26.1965 23.905 26.7006C23.3776 26.9057 22.5807 27.1518 21.1213 27.2162C19.5389 27.2867 19.0644 27.3041 15.0616 27.3041C11.0588 27.3041 10.5783 27.2867 9.00166 27.2162C7.53653 27.1518 6.74536 26.9057 6.21791 26.7006C5.56753 26.4602 4.97553 26.0793 4.49501 25.5812C3.99686 25.0947 3.61593 24.5086 3.37556 23.8583C3.17044 23.3308 2.92434 22.5337 2.86001 21.0745C2.78951 19.4922 2.77211 19.0174 2.77211 15.0146C2.77211 11.0118 2.78951 10.5313 2.86001 8.95492C2.92434 7.48979 3.17044 6.69862 3.37556 6.17117C3.61593 5.52056 3.99686 4.92879 4.50096 4.44804C4.9872 3.9499 5.57325 3.56896 6.22386 3.32882C6.75131 3.1237 7.54843 2.87761 9.00761 2.81305C10.5899 2.74277 11.0647 2.72514 15.0673 2.72514C19.076 2.72514 19.5506 2.74277 21.1272 2.81305C22.5923 2.87761 23.3835 3.1237 23.911 3.32882C24.5613 3.56896 25.1533 3.9499 25.6339 4.44804C26.132 4.93451 26.5129 5.52056 26.7533 6.17117C26.9584 6.69862 27.2045 7.49551 27.2691 8.95492C27.3394 10.5373 27.357 11.0118 27.357 15.0146C27.357 19.0174 27.3394 19.4862 27.2691 21.0686Z" fill="white"/>
<path d="M15.0556 7.29634C10.801 7.29634 7.34904 10.7481 7.34904 15.0029C7.34904 19.2578 10.801 22.7095 15.0556 22.7095C19.3105 22.7095 22.7622 19.2578 22.7622 15.0029C22.7622 10.7481 19.3105 7.29634 15.0556 7.29634ZM15.0556 20.002C12.2955 20.002 10.0566 17.7633 10.0566 15.0029C10.0566 12.2425 12.2955 10.0039 15.0556 10.0039C17.816 10.0039 20.0547 12.2425 20.0547 15.0029C20.0547 17.7633 17.816 20.002 15.0556 20.002Z" fill="white"/>
<path d="M24.8663 6.99164C24.8663 7.98518 24.0607 8.79078 23.0669 8.79078C22.0734 8.79078 21.2678 7.98518 21.2678 6.99164C21.2678 5.99788 22.0734 5.19251 23.0669 5.19251C24.0607 5.19251 24.8663 5.99788 24.8663 6.99164Z" fill="white"/>
</g>
<defs>
<clipPath id="clip0">
<rect width="30" height="30" fill="white"/>
</clipPath>
</defs>
</svg>
