<svg width="15" height="15" viewBox="0 0 15 15" fill="none" xmlns="http://www.w3.org/2000/svg">
<g clip-path="url(#clip0)">
<path d="M7.5 0C10.1357 0 12.334 2.12314 12.334 4.83398C12.334 5.86529 12.0241 6.78492 11.4293 7.64666L7.86993 13.2008C7.69726 13.4708 7.30239 13.4702 7.13007 13.2008L3.55523 7.62776C2.97328 6.80508 2.66602 5.83907 2.66602 4.83398C2.66602 2.16853 4.83454 0 7.5 0ZM7.5 7.03125C8.71151 7.03125 9.69727 6.0455 9.69727 4.83398C9.69727 3.62247 8.71151 2.63672 7.5 2.63672C6.28849 2.63672 5.30273 3.62247 5.30273 4.83398C5.30273 6.0455 6.28849 7.03125 7.5 7.03125Z" fill="black"/>
<path d="M4.06453 10.0985L6.27735 13.5581C6.85014 14.4511 8.15306 14.4482 8.72309 13.5589L10.9395 10.0994C12.8896 10.5503 14.0918 11.3762 14.0918 12.3633C14.0918 14.076 10.6955 15 7.5 15C4.30453 15 0.908203 14.076 0.908203 12.3633C0.908203 11.3755 2.11204 10.5491 4.06453 10.0985Z" fill="black"/>
</g>
<defs>
<clipPath id="clip0">
<rect width="15" height="15" fill="white" transform="matrix(-1 0 0 1 15 0)"/>
</clipPath>
</defs>
</svg>
