<svg width="30" height="30" viewBox="0 0 30 30" fill="none" xmlns="http://www.w3.org/2000/svg">
<g clip-path="url(#clip0)">
<path d="M28.571 22.017L24.5091 17.8304C23.0584 16.3352 20.5922 16.9333 20.0119 18.877C19.5767 20.2228 18.1261 20.9704 16.8204 20.6713C13.9191 19.9237 10.0022 16.0361 9.27686 12.8962C8.84165 11.5504 9.71206 10.0552 11.0177 9.60673C12.9036 9.00864 13.4839 6.46679 12.0332 4.97158L7.97124 0.784986C6.81069 -0.261662 5.06986 -0.261662 4.05438 0.784986L1.29807 3.62589C-1.45823 6.61631 1.58821 14.5409 8.40645 21.5684C15.2247 28.5959 22.9133 31.8854 25.8147 28.8949L28.571 26.054C29.5865 24.8579 29.5865 23.0636 28.571 22.017Z" fill="white"/>
</g>
<defs>
<clipPath id="clip0">
<rect width="29.1067" height="30" fill="white" transform="translate(0.255585)"/>
</clipPath>
</defs>
</svg>
