<svg width="28" height="30" viewBox="0 0 28 30" fill="none" xmlns="http://www.w3.org/2000/svg">
<g clip-path="url(#clip0)">
<path fill-rule="evenodd" clip-rule="evenodd" d="M23.9381 4.08725C21.3069 1.45293 17.8075 0.00153613 14.0796 -8.82149e-06C6.39772 -8.82149e-06 0.145809 6.25173 0.142719 13.9356C0.141689 16.3919 0.78336 18.7897 2.00301 20.9032L0.0258179 28.125L7.41395 26.1869C9.44968 27.2974 11.7415 27.8826 14.0739 27.8833H14.0797C21.7607 27.8833 28.0133 21.631 28.0162 13.9468C28.0178 10.2228 26.5695 6.72139 23.9381 4.08725ZM14.0796 25.5296H14.0748C11.9963 25.5288 9.9578 24.9702 8.17905 23.915L7.75624 23.6639L3.37201 24.814L4.54223 20.5395L4.26671 20.1012C3.10714 18.2569 2.49482 16.1252 2.49585 13.9365C2.49826 7.54983 7.69479 2.35381 14.0842 2.35381C17.1782 2.35484 20.0867 3.56128 22.2736 5.75082C24.4606 7.94036 25.6643 10.8507 25.6633 13.9459C25.6605 20.3331 20.4643 25.5296 14.0796 25.5296ZM20.4334 16.8541C20.0853 16.6796 18.3732 15.8375 18.0539 15.7211C17.7349 15.6049 17.5025 15.547 17.2706 15.8955C17.0383 16.244 16.3711 17.0285 16.1678 17.2607C15.9646 17.4931 15.7617 17.5223 15.4134 17.3479C15.0651 17.1737 13.9431 16.8058 12.6129 15.6195C11.5778 14.6961 10.8789 13.5557 10.6757 13.2073C10.4728 12.8585 10.674 12.6882 10.8285 12.4966C11.2054 12.0285 11.5829 11.5377 11.699 11.3054C11.8152 11.073 11.757 10.8696 11.6698 10.6954C11.5829 10.5211 10.8865 8.80708 10.5964 8.10962C10.3135 7.43087 10.0266 7.52254 9.81275 7.51189C9.60984 7.50177 9.37759 7.49971 9.14533 7.49971C8.91324 7.49971 8.53593 7.58674 8.21664 7.93555C7.89752 8.2842 6.99802 9.12654 6.99802 10.8406C6.99802 12.5546 8.24582 14.2105 8.41989 14.4429C8.59395 14.6753 10.8755 18.1927 14.3686 19.7009C15.1995 20.06 15.848 20.2741 16.3539 20.4346C17.1882 20.6996 17.9471 20.6622 18.5472 20.5726C19.2164 20.4725 20.6073 19.7301 20.8978 18.9167C21.1879 18.1032 21.1879 17.4061 21.1007 17.2607C21.0138 17.1155 20.7816 17.0285 20.4334 16.8541Z" fill="white"/>
</g>
<defs>
<clipPath id="clip0">
<rect width="30" height="30" fill="white"/>
</clipPath>
</defs>
</svg>
